<svg xmlns="http://www.w3.org/2000/svg" xmlns:xlink="http://www.w3.org/1999/xlink" version="1.1" id="Layer_1" x="0px" y="0px" width="100px" height="87.174px" viewBox="0 0 100 87.174" enable-background="new 0 0 100 87.174" xml:space="preserve">
<polygon points="34.766,54.349 32.871,53.282 40.99,44.805 42.865,45.885 "/>
<polygon points="53.288,44.011 34.141,63.958 36.009,65.013 55.149,45.084 "/>
<path d="M100,16.94C99.876,8.32,96.374,0.43,89.414,0c-0.02,0-0.039,0.013-0.059,0.013L25.807,0  c-6.946,0.43-10.456,8.32-10.56,16.94c0.098,8.255,3.359,15.768,9.739,16.771L0,87.174l69.759-0.149l27.878-59.062l-0.117-0.013  C99.102,24.909,99.941,21.022,100,16.94z M21.849,26.23c-1.296-2.22-2.168-5.579-2.168-9.29c0-3.718,0.872-7.051,2.168-9.304  c1.309-2.285,2.812-3.209,3.958-3.184h56.419c-2.168,3.184-3.32,7.695-3.386,12.487c0.065,4.785,1.218,9.29,3.379,12.48H25.807  C24.662,29.447,23.158,28.535,21.849,26.23z M67.298,82.584L7.969,82.696L29.57,33.88h59.844c0.13-0.006,0.234-0.059,0.364-0.072  L67.298,82.584z M93.392,26.23c-1.314,2.305-2.825,3.216-3.978,3.19c-1.159,0.026-2.649-0.886-3.965-3.19  c-1.27-2.22-2.161-5.579-2.161-9.29c0-3.718,0.892-7.051,2.161-9.304c1.315-2.285,2.806-3.209,3.965-3.184  c1.152-0.026,2.663,0.898,3.978,3.184c1.27,2.253,2.162,5.586,2.143,9.304C95.554,20.651,94.661,24.011,93.392,26.23z"/>
<polygon points="43.066,65.905 44.948,66.986 57.903,53.509 56.028,52.442 "/>
</svg>